<svg xmlns="http://www.w3.org/2000/svg" viewBox="0 0 391.38 359.62"><defs><style>.cls-1,.cls-6{fill:#3e3e42;}.cls-2{fill:#fbfbfb;}.cls-3{fill:#fcfcfc;}.cls-4{fill:#fafafb;}.cls-5{fill:#818182;}.cls-6{stroke:#3e3e42;stroke-miterlimit:10;stroke-width:3px;}</style></defs><title>hyperledger</title><g id="Layer_2" data-name="Layer 2"><g id="Layer_1-2" data-name="Layer 1"><path class="cls-1" d="M372.54,171.86c-3.32-1.51-4.73.44-6.08,3.4Q332.35,250,298.09,324.72c-.52,1.15-.69,2.16-2.57,2.32-24.7,2.13-49.39,4.43-74.08,6.7q-45,4.14-90,8.23c-2.44.22-3.43,1.09-3.86,3.49-1.41,8-6.57,12.6-14.32,13.9-6.81,1.14-12.48-1.58-16.36-7.23-4.27-6.22-4.35-12.83-.11-19.12,1.48-2.18,1.42-3.52-.06-5.63q-33.24-47.06-66.31-94.23-14.78-21-29.79-41.79c-1-1.43-.65-2.13-.06-3.42Q35.24,112.88,69.83,37.79c1.09-2.37,1.2-3.84-1.08-5.87-5.64-5-7.07-11.5-4.56-18.63C66.48,6.77,73.06,1.91,79.82,2.08,87.24,2.27,93,5.73,95.76,12.8c1.12,2.84,2.69,3.16,5.21,2.92Q167.06,9.36,233.14,3.08C243.57,2.08,254,1.16,264.43,0c2.05-.22,2.84.68,3.86,2.12q47.34,67,94.71,134c1.76,2.49,3.1,3.2,6.41,2.21,7.12-2.13,13.51-.14,18.19,6,4.37,5.71,5,11.94,1.61,18.24S380.13,172.09,372.54,171.86Zm-79.7-65.33c-.27-.16-.64-.52-.79-.44-.58.31-.37.8-.1,1.25,2.82,12.63,5.66,25.25,8.43,37.89.44,2,1.25,3.25,3.53,3.39,16.76,1,33.52,2.09,50.28,3.15,1.73.11,3,.08,3.71-2.16.76-2.42-.26-3.2-2-4.25-5.41-3.24-10.71-6.65-16.08-10ZM93.53,177.17l1,.7a2.36,2.36,0,0,0,0,2.72c2.81,4.34,3.13,9.08,2.22,14l-1.23,2.3c-1.59,3.21-3.8,6-7.06,7.44-3.1,1.34-3,3.18-2.45,5.93,1.63,7.8,3.14,15.63,4.41,23.49a8.15,8.15,0,0,0,4.62,6.49c8.74,4.75,17.33,9.75,26,14.63,9.65,5.42,19.32,10.82,30.21,16.92-4.17-21.05-8.08-40.85-12-60.65.06-.81.34-1.69-.59-2.24-2.11-11.56-4-23.16-6.43-34.65-1.7-8-2.17-16.34-5.55-24-2.11-20.92-7.65-41.16-11.31-62.77-11.31,10.41-21.68,20-32.08,29.5a5,5,0,0,0-1.58,4q0,24.22,0,48.45c0,1.11-.41,2.81,1,3C86.82,173.07,89.61,176.4,93.53,177.17Zm-81.65,20.3c-.59-.53-1.37-1.06-2-.41-.47.48.14,1.07.66,1.43A29.29,29.29,0,0,0,12,201.06q22.33,31.83,44.68,63.62,21.06,30,42.18,59.9c.86,1.22,1.2,3.78,3.92,2.8,2-.73,1.64-2.13,1.35-3.65C99,297,93.85,270.22,88.86,243.45a6.8,6.8,0,0,0-4-5.16c-6.56-3.59-13-7.39-19.52-11Q38.63,212.33,11.88,197.47Zm235.67,49.46a21.79,21.79,0,0,0,1.89-2.93c2.05-4.57,7.85-4.66,10.28-8.74,3.71,2.54,8.74.71,12.29,3.69,2.13,1.79,3.78,1.11,5.63-.58q8.08-7.43,16.41-14.59a6.85,6.85,0,0,0,2.47-5.63c.31-16.49.77-33,1.12-49.45.1-4.52,0-9,0-14.58-5.2,4.42-9.61,8.14-14,11.89q-17.57,15-35.11,30.07-20.61,17.74-41.14,35.56c-1.1.41-.78,1.41-.91,2.22a7.52,7.52,0,0,0-4.84,2.22c-6.39,5.56-12.85,11-19.27,16.56L157,274.5c13.71,4.8,26.66,9.29,39.56,13.9,2.35.85,3.85-.54,5.5-1.49,13.22-7.58,26.35-15.32,39.63-22.81,3.85-2.17,6.8-4.15,4.89-9.34-.64-1.72.06-3.94.16-5.93A1.94,1.94,0,0,0,247.55,246.93Zm-19-166.82c-1.16-.07-2.32-.17-3.48-.21a17.27,17.27,0,0,1-11.71-5.59c-2.08-2.44-4.14-7.36-3.23-11.74.67-3.21-1.08-4-3.54-4.66-6.88-1.92-13.76-3.82-20.55-6a10.79,10.79,0,0,0-9.42,1c-15.75,8.9-31.65,17.55-47.46,26.34-2.5,1.39-5.33,2.31-7.77,5C135.6,89.3,149.26,94.28,163,99c5.13,1.77,9.94,4.61,15.54,4.92l1.68,1c13.67,5,27.23,10.4,41.08,14.88,5.63,1.82,10.76,6.72,17.51,4.15.13,0,.69.61.8,1,.6,2.16,2.49,2.38,4.2,3,12.48,4.49,24.94,9.06,37.43,13.55,5.17,1.85,10.4,3.57,16.18,5.55-3.32-14.4-6.47-27.78-9.46-41.2a7.16,7.16,0,0,0-3.5-5c-13.71-8.44-27.33-17-41-25.49-1-.65-2.54-2.22-3.48-1-2.63,3.55-9.41,2.82-8.71,10.42-1-2.22-1.41-3.12-1.82-4C229.47,80.21,229.17,80,228.54,80.11ZM145.81,213.75c-.75-.92-1.47-1.39-2.08.12q5.11,27.07,10.2,54.14c.61,3.29,1.61,3.26,4,1.19,13-11.3,26.22-22.43,39.33-33.65,1.08-.92,2.64-1.65,2.15-3.56l.09-1.05c2.66.64,4.32-1,6.12-2.53q24.72-21.27,49.5-42.46c12.64-10.82,25.22-21.71,38-32.37,3.19-2.66,2.34-3.52-.92-4.64-8.94-3.07-17.84-6.26-26.75-9.44-7.91-2.81-15.81-5.67-24.17-8.67l.26,5.79c-.77-6-4.94-7.65-9.89-9.38-28.14-9.89-56.16-20.11-84.23-30.17-9.19-3.3-18.41-6.49-28-9.86a19.7,19.7,0,0,0,0,2.93q5.07,26.44,10.18,52.87c.17.87.56,1.55,1.58,1.57l.53,1.29c-1.53,1.37-.9,2.93-.57,4.59q5.49,28,10.84,56c.52,2.73,1,4.89,4.32,5.73C148.64,212.8,147.08,213.54,145.81,213.75ZM78.41,122.1c-1.64,1.19-2.36,1.6-3,2.15Q41.8,155.17,8.12,186.07c-2.66,2.42-3,3.5.5,5.46,22.2,12.34,44.25,24.95,66.43,37.34,3.72,2.08,7.17,4.78,12,6.08-.89-5.11-1.69-9.8-2.53-14.49-.71-3.93-1.52-7.83-2.22-11.76-.31-1.76-1.51-1.73-2.92-1.93-9.62-1.4-15.31-6.86-16.27-15.43C62.21,183,66.77,176.3,76,173c1.71-.61,2.46-1.23,2.46-3.05C78.39,154.38,78.41,138.78,78.41,122.1ZM203,290.21a28.46,28.46,0,0,0,2.73,1.39c28.16,9.86,56.34,19.65,84.45,29.63,3.5,1.24,4.18.6,4.24-3,.51-27.61,1.2-55.22,1.82-82.84.06-2.72,0-5.45,0-9.28-5.76,5.15-10.6,9.65-15.63,13.9-2.45,2.07-3.28,3.6-1.59,7,3.46,6.88,1.19,15-4.64,19.83s-14.51,6.13-19.72,1.23-8.91-3.29-13.41-.06a48.21,48.21,0,0,1-4.27,2.56Zm82.41,34c-1.23-1-1.54-1.45-2-1.6Q242.17,308,200.85,293.5a4.58,4.58,0,0,0-4.21.39Q162.82,313.5,129,333.05c-1.39.81-2.78,1.53-1.89,3.86s2.35,2,4,1.82c4.14-.34,8.28-.73,12.42-1.12q58.11-5.43,116.22-10.88C267.9,326,276.12,325.11,285.44,324.18Zm-.05-226.67a18.38,18.38,0,0,0,0-3q-9.93-43.44-19.85-86.87c-.7-3.11-1.92-2.73-4.07-1.53-10.57,5.92-21.19,11.76-31.8,17.61Q209.83,34.69,190,45.64c-1.08.6-2.9,1-2.48,2.62.18.71,1.81,1.18,2.86,1.5,5.89,1.77,11.8,3.41,17.68,5.19,2.09.64,3.38.54,5-1.55,5.8-7.65,13.8-9.66,21.52-5.91S245.48,58.93,243.35,68c-.35,1.47-1.11,2.74.69,3.86C257.57,80.23,271.07,88.63,285.39,97.51Zm-275.65,81A1.9,1.9,0,0,0,12,178q32.13-29.56,64.27-59.11c1.81-1.66,2.19-3.48,2.18-5.75,0-24.13,0-48.27-.07-72.4,0-1.78,1-4.25-2.09-4.76-2.7-.45-2.77,1.93-3.46,3.42Q41.83,106.64,10.94,174C10.28,175.4,9.13,176.76,9.74,178.55ZM299,313.63c.8,0,.77-1.09,1.08-1.77Q332,242.45,363.81,173c.62-1.36,2.21-2.83.24-4.39-2.24-1.78-3.34.4-4.55,1.47-19.09,16.85-38.1,33.79-57.23,50.58-2.18,1.91-2.57,4-2.61,6.61-.19,11.65-.58,23.3-.66,35C298.88,279.36,299,296.47,299,313.63ZM270.82,13.34c-.59,1.72.18,3.27.55,4.86,6,26.06,12,52.1,17.86,78.2a9.39,9.39,0,0,0,4.64,6.54c14.43,8.86,28.77,17.86,43.16,26.8q10.35,6.42,20.74,12.8c1.24.76,2.46,2,3.93.49s0-2.71-.71-3.92c-.42-.71-.95-1.36-1.43-2q-42.49-60-85-119.95C273.55,15.66,272.85,13.83,270.82,13.34ZM253.54,4.85c-5.4.43-10.5.77-15.59,1.25q-68,6.39-136.07,12.86c-1.61.15-4-.81-4.5,1.86-.49,2.93,2.34,2.41,3.76,2.83,25.13,7.45,50.3,14.74,75.45,22.16a9.54,9.54,0,0,0,7.95-1c21.88-12.17,43.85-24.2,65.77-36.3C251.52,7.87,253.24,7.63,253.54,4.85ZM93,242.88a7.46,7.46,0,0,0,.09,4.32q6.57,34.51,13.11,69c1.55,8.23,1.58,8,9.67,10,2.57.61,3.65-.21,4.79-2,9.56-15.16,19.08-30.36,28.77-45.45,1.64-2.54,1.11-3.63-1.3-4.93-7-3.78-13.9-7.73-20.84-11.63Q110.14,252.56,93,242.88ZM176,49.41a31.36,31.36,0,0,0-2.94-1.26C148.56,41,124,34,99.56,26.6c-5.43-1.65-5,3.44-7.54,5S90.77,35,91.78,36.8c7.88,14,15.84,28,23.55,42.15,1.69,3.09,3.18,2.31,5.45,1,14.34-8,28.73-15.91,43.1-23.86ZM300.37,217.47a23.4,23.4,0,0,0,2.12-1.41q27.79-24.63,55.59-49.27c4-3.52-1.25-6.16-.88-9.42.26-2.31-1.92-2.23-3.59-2.34-15.92-1-31.85-1.9-47.76-3.1-3.63-.27-4.36.87-4.41,4.28-.2,16.13-.7,32.25-1.05,48.38C300.3,208.65,300.37,212.71,300.37,217.47ZM81.73,113.84c11-10.13,20.88-19.26,30.83-28.31,1.93-1.77.89-3.25,0-4.84-7.87-14-15.78-28-23.6-42.12-1.14-2-2.06-3.54-4.9-2.79s-2.31,2.83-2.31,4.73q0,22.25,0,44.49ZM194.56,291.25c-12.87-4.49-24.49-8.37-36-12.68-3.34-1.25-5-.67-6.8,2.25-9.29,14.92-18.78,29.72-28.12,44.61-.85,1.36-2.76,2.74-.84,4.79s3.7.35,5.26-.54c13.07-7.52,26.09-15.14,39.14-22.7C176,301.93,184.7,296.93,194.56,291.25Z"/><path class="cls-2" d="M145.81,213.75l-2.08.12C144.34,212.36,145.06,212.83,145.81,213.75Z"/><path class="cls-3" d="M10.54,198.49c-.52-.36-1.13-1-.66-1.43.63-.65,1.41-.12,2,.41Z"/><path class="cls-3" d="M229.43,80.86l-.89-.75C229.17,80,229.47,80.21,229.43,80.86Z"/><path class="cls-4" d="M292,107.34c-.27-.45-.48-.94.1-1.25.15-.08.52.28.79.44Z"/><polygon class="cls-5" points="210.55 76.95 210.6 76.78 210.53 76.9 210.55 76.95"/><line class="cls-6" x1="229.79" y1="78.88" x2="260.29" y2="241.62"/><line class="cls-6" x1="75.83" y1="187.68" x2="253.54" y2="252.58"/><line class="cls-6" x1="81.56" y1="186.98" x2="217.17" y2="71.79"/></g></g></svg>